<svg width="58" height="76" viewBox="0 0 58 76" fill="none" xmlns="http://www.w3.org/2000/svg">
<path d="M4 18L54 18" stroke="black" stroke-width="8" stroke-linecap="round" stroke-linejoin="round"/>
<path d="M7 31V59C7 66.1797 12.8203 72 20 72H37C44.1797 72 50 66.1797 50 59V31" stroke="black" stroke-width="8" stroke-linecap="round" stroke-linejoin="round"/>
<path fill-rule="evenodd" clip-rule="evenodd" d="M35.5732 18C35.8496 17.2181 36 16.3766 36 15.5C36 11.3579 32.6421 8 28.5 8C24.3579 8 21 11.3579 21 15.5C21 16.3766 21.1504 17.2181 21.4268 18H13.2006C13.0686 17.1862 13 16.3511 13 15.5C13 6.93959 19.9396 0 28.5 0C37.0604 0 44 6.93959 44 15.5C44 16.3511 43.9314 17.1862 43.7994 18H35.5732Z" fill="black"/>
<path d="M22 39L35 52" stroke="black" stroke-width="8" stroke-linecap="round" stroke-linejoin="round"/>
<path d="M35 39L22 52" stroke="black" stroke-width="8" stroke-linecap="round" stroke-linejoin="round"/>
</svg>
