<svg width="64" height="68" viewBox="0 0 64 68" fill="none" xmlns="http://www.w3.org/2000/svg">
<path fill-rule="evenodd" clip-rule="evenodd" d="M22.6147 4.05687C23.067 1.70215 25.1272 0 27.5249 0H36.627C39.0834 0 41.176 1.78426 41.5642 4.20975L42.539 10.2998C44.189 11.0583 45.7446 11.987 47.1833 13.0634L52.8445 11.124C55.1061 10.3492 57.5997 11.2837 58.7951 13.3541L63.1526 20.9016C64.3778 23.0237 63.8846 25.7209 61.9878 27.2721L57.3477 31.0669C57.4289 31.8971 57.4704 32.7389 57.4704 33.5904C57.4704 34.7404 57.3947 35.8726 57.2479 36.9824L61.9461 40.7708C63.8638 42.3171 64.3694 45.0297 63.1377 47.1631L58.8123 54.6549C57.6093 56.7386 55.0927 57.67 52.823 56.8716L46.4658 54.6353C45.6284 55.218 44.7545 55.752 43.8483 56.2331L42.627 63.0612C42.2006 65.4452 40.127 67.1809 37.7051 67.1809H27.6012C25.2442 67.1809 23.2072 65.5347 22.7126 63.2301L21.3701 56.9755C19.93 56.3291 18.5604 55.5535 17.2761 54.6636L10.9993 56.8716C8.72959 57.67 6.21305 56.7386 5.01001 54.6549L0.68459 47.1631C-0.547114 45.0297 -0.0414361 42.3171 1.87622 40.7708L6.46515 37.0706C6.3106 35.9326 6.23077 34.7708 6.23077 33.5904C6.23077 32.7066 6.27552 31.8333 6.36288 30.9726L1.83584 27.272C-0.0616392 25.721 -0.55522 23.0232 0.670158 20.9008L5.0267 13.355C6.22227 11.2843 8.71667 10.3498 10.9785 11.1254L16.5533 13.0368C18.0626 11.9117 19.7 10.9489 21.4397 10.1743L22.6147 4.05687ZM31.8301 18.2185C23.3499 18.2296 16.4787 25.1076 16.4787 33.5904C16.4787 42.0801 23.361 48.9623 31.8506 48.9623C40.3403 48.9623 47.2225 42.0801 47.2225 33.5904C47.2225 25.1076 40.3514 18.2296 31.8711 18.2185H31.8301Z" fill="black"/>
</svg>
